# xmcd
# 
# Track frame offsets:
#	150
#	16465
#	30095
#	47865
#	64305
#	80185
#	102237
#	122747
#	142397
#	160037
#	181600
#	194000
#	210175
#
# Disc length: 3007 seconds
#
# Revision: 2
# Processed by: cddbd v1.4PL0 Copyright (c) Steve Scherf et al.
# Submitted via: Audio-CD-Archiv 2.10.441
#
DISCID=b20bbd0d
DTITLE=Hoosegow - Mighty
DYEAR=1900
DGENRE=blues
TTITLE0=Mighty
TTITLE1=Dead or alive
TTITLE2=Trouble
TTITLE3=Junky Heaven
TTITLE4=You never can tell
TTITLE5=Later
TTITLE6=Is it any wonder?
TTITLE7=Over my shoulder
TTITLE8=Are you waiting for me?
TTITLE9=Intuition
TTITLE10=William's Lamentation
TTITLE11=Myopia
TTITLE12=I'm ready
EXTD=
EXTT0=
EXTT1=
EXTT2=
EXTT3=
EXTT4=
EXTT5=
EXTT6=
EXTT7=
EXTT8=
EXTT9=
EXTT10=
EXTT11=
EXTT12=
PLAYORDER=
